<svg width="64" height="24" viewBox="0 0 64 24" fill="none" xmlns="http://www.w3.org/2000/svg">
<path d="M15 12C15 13.657 13.657 15 12 15C10.343 15 9 13.657 9 12C9 11.801 9.02 11.607 9.057 11.419C10.531 11.96 11.984 10.537 11.462 9.048C11.636 9.018 11.816 9 12 9C13.657 9 15 10.344 15 12ZM12.015 5C4.446 5 0 11.551 0 11.551C0 11.551 4.835 19 12.015 19C19.748 19 24 11.551 24 11.551C24 11.551 19.709 5 12.015 5ZM12 17C9.239 17 7 14.762 7 12C7 9.239 9.239 7 12 7C14.762 7 17 9.239 17 12C17 14.762 14.762 17 12 17Z" fill="black"/>
<path d="M38.744 7.228L35.16 17H32.78L29.196 7.228H31.296L33.984 14.998L36.658 7.228H38.744ZM40.9131 8.32C40.5678 8.32 40.2785 8.21267 40.0451 7.998C39.8211 7.774 39.7091 7.49867 39.7091 7.172C39.7091 6.84533 39.8211 6.57467 40.0451 6.36C40.2785 6.136 40.5678 6.024 40.9131 6.024C41.2585 6.024 41.5431 6.136 41.7671 6.36C42.0005 6.57467 42.1171 6.84533 42.1171 7.172C42.1171 7.49867 42.0005 7.774 41.7671 7.998C41.5431 8.21267 41.2585 8.32 40.9131 8.32ZM41.8791 9.244V17H39.9191V9.244H41.8791ZM51.0256 12.954C51.0256 13.234 51.0069 13.486 50.9696 13.71H45.2996C45.3463 14.27 45.5423 14.7087 45.8876 15.026C46.2329 15.3433 46.6576 15.502 47.1616 15.502C47.8896 15.502 48.4076 15.1893 48.7156 14.564H50.8296C50.6056 15.3107 50.1763 15.9267 49.5416 16.412C48.9069 16.888 48.1276 17.126 47.2036 17.126C46.4569 17.126 45.7849 16.9627 45.1876 16.636C44.5996 16.3 44.1376 15.8287 43.8016 15.222C43.4749 14.6153 43.3116 13.9153 43.3116 13.122C43.3116 12.3193 43.4749 11.6147 43.8016 11.008C44.1283 10.4013 44.5856 9.93467 45.1736 9.608C45.7616 9.28133 46.4383 9.118 47.2036 9.118C47.9409 9.118 48.5989 9.27667 49.1776 9.594C49.7656 9.91133 50.2183 10.364 50.5356 10.952C50.8623 11.5307 51.0256 12.198 51.0256 12.954ZM48.9956 12.394C48.9863 11.89 48.8043 11.4887 48.4496 11.19C48.0949 10.882 47.6609 10.728 47.1476 10.728C46.6623 10.728 46.2516 10.8773 45.9156 11.176C45.5889 11.4653 45.3883 11.8713 45.3136 12.394H48.9956ZM63.2082 9.244L60.9402 17H58.8262L57.4122 11.582L55.9982 17H53.8702L51.5882 9.244H53.5762L54.9482 15.152L56.4322 9.244H58.5042L59.9602 15.138L61.3322 9.244H63.2082Z" fill="black"/>
</svg>
