<svg width="67" height="24" viewBox="0 0 67 24" fill="none" xmlns="http://www.w3.org/2000/svg">
<path d="M12 0C5.374 0 0 5.373 0 12C0 17.302 3.438 21.8 8.207 23.387C8.806 23.498 9 23.126 9 22.81V20.576C5.662 21.302 4.967 19.16 4.967 19.16C4.421 17.773 3.634 17.404 3.634 17.404C2.545 16.659 3.717 16.675 3.717 16.675C4.922 16.759 5.556 17.912 5.556 17.912C6.626 19.746 8.363 19.216 9.048 18.909C9.155 18.134 9.466 17.604 9.81 17.305C7.145 17 4.343 15.971 4.343 11.374C4.343 10.063 4.812 8.993 5.579 8.153C5.455 7.85 5.044 6.629 5.696 4.977C5.696 4.977 6.704 4.655 8.997 6.207C9.954 5.941 10.98 5.808 12 5.803C13.02 5.808 14.047 5.941 15.006 6.207C17.297 4.655 18.303 4.977 18.303 4.977C18.956 6.63 18.545 7.851 18.421 8.153C19.191 8.993 19.656 10.064 19.656 11.374C19.656 15.983 16.849 16.998 14.177 17.295C14.607 17.667 15 18.397 15 19.517V22.81C15 23.129 15.192 23.504 15.801 23.386C20.566 21.797 24 17.3 24 12C24 5.373 18.627 0 12 0Z" fill="black"/>
<path d="M29.49 11.1C29.49 10.1387 29.7047 9.28 30.134 8.524C30.5727 7.75867 31.1653 7.166 31.912 6.746C32.668 6.31667 33.5127 6.102 34.446 6.102C35.538 6.102 36.4947 6.382 37.316 6.942C38.1373 7.502 38.7113 8.27667 39.038 9.266H36.784C36.56 8.79933 36.2427 8.44933 35.832 8.216C35.4307 7.98267 34.964 7.866 34.432 7.866C33.8627 7.866 33.354 8.00133 32.906 8.272C32.4673 8.53333 32.122 8.90667 31.87 9.392C31.6273 9.87733 31.506 10.4467 31.506 11.1C31.506 11.744 31.6273 12.3133 31.87 12.808C32.122 13.2933 32.4673 13.6713 32.906 13.942C33.354 14.2033 33.8627 14.334 34.432 14.334C34.964 14.334 35.4307 14.2173 35.832 13.984C36.2427 13.7413 36.56 13.3867 36.784 12.92H39.038C38.7113 13.9187 38.1373 14.698 37.316 15.258C36.504 15.8087 35.5473 16.084 34.446 16.084C33.5127 16.084 32.668 15.874 31.912 15.454C31.1653 15.0247 30.5727 14.432 30.134 13.676C29.7047 12.92 29.49 12.0613 29.49 11.1ZM44.1561 16.126C43.4094 16.126 42.7374 15.9627 42.1401 15.636C41.5428 15.3 41.0714 14.8287 40.7261 14.222C40.3901 13.6153 40.2221 12.9153 40.2221 12.122C40.2221 11.3287 40.3948 10.6287 40.7401 10.022C41.0948 9.41533 41.5754 8.94867 42.1821 8.622C42.7888 8.286 43.4654 8.118 44.2121 8.118C44.9588 8.118 45.6354 8.286 46.2421 8.622C46.8488 8.94867 47.3248 9.41533 47.6701 10.022C48.0248 10.6287 48.2021 11.3287 48.2021 12.122C48.2021 12.9153 48.0201 13.6153 47.6561 14.222C47.3014 14.8287 46.8161 15.3 46.2001 15.636C45.5934 15.9627 44.9121 16.126 44.1561 16.126ZM44.1561 14.418C44.5108 14.418 44.8421 14.334 45.1501 14.166C45.4674 13.9887 45.7194 13.7273 45.9061 13.382C46.0928 13.0367 46.1861 12.6167 46.1861 12.122C46.1861 11.3847 45.9901 10.82 45.5981 10.428C45.2154 10.0267 44.7441 9.826 44.1841 9.826C43.6241 9.826 43.1528 10.0267 42.7701 10.428C42.3968 10.82 42.2101 11.3847 42.2101 12.122C42.2101 12.8593 42.3921 13.4287 42.7561 13.83C43.1294 14.222 43.5961 14.418 44.1561 14.418ZM49.1358 12.094C49.1358 11.31 49.2898 10.6147 49.5978 10.008C49.9152 9.40133 50.3445 8.93467 50.8858 8.608C51.4272 8.28133 52.0292 8.118 52.6918 8.118C53.1958 8.118 53.6765 8.23 54.1338 8.454C54.5912 8.66867 54.9552 8.958 55.2258 9.322V5.64H57.2138V16H55.2258V14.852C54.9832 15.2347 54.6425 15.5427 54.2038 15.776C53.7652 16.0093 53.2565 16.126 52.6778 16.126C52.0245 16.126 51.4272 15.958 50.8858 15.622C50.3445 15.286 49.9152 14.8147 49.5978 14.208C49.2898 13.592 49.1358 12.8873 49.1358 12.094ZM55.2398 12.122C55.2398 11.646 55.1465 11.24 54.9598 10.904C54.7732 10.5587 54.5212 10.2973 54.2038 10.12C53.8865 9.93333 53.5458 9.84 53.1818 9.84C52.8178 9.84 52.4818 9.92867 52.1738 10.106C51.8658 10.2833 51.6138 10.5447 51.4178 10.89C51.2312 11.226 51.1378 11.6273 51.1378 12.094C51.1378 12.5607 51.2312 12.9713 51.4178 13.326C51.6138 13.6713 51.8658 13.9373 52.1738 14.124C52.4912 14.3107 52.8272 14.404 53.1818 14.404C53.5458 14.404 53.8865 14.3153 54.2038 14.138C54.5212 13.9513 54.7732 13.69 54.9598 13.354C55.1465 13.0087 55.2398 12.598 55.2398 12.122ZM66.3381 11.954C66.3381 12.234 66.3194 12.486 66.2821 12.71H60.6121C60.6588 13.27 60.8548 13.7087 61.2001 14.026C61.5454 14.3433 61.9701 14.502 62.4741 14.502C63.2021 14.502 63.7201 14.1893 64.0281 13.564H66.1421C65.9181 14.3107 65.4888 14.9267 64.8541 15.412C64.2194 15.888 63.4401 16.126 62.5161 16.126C61.7694 16.126 61.0974 15.9627 60.5001 15.636C59.9121 15.3 59.4501 14.8287 59.1141 14.222C58.7874 13.6153 58.6241 12.9153 58.6241 12.122C58.6241 11.3193 58.7874 10.6147 59.1141 10.008C59.4408 9.40133 59.8981 8.93467 60.4861 8.608C61.0741 8.28133 61.7508 8.118 62.5161 8.118C63.2534 8.118 63.9114 8.27667 64.4901 8.594C65.0781 8.91133 65.5308 9.364 65.8481 9.952C66.1748 10.5307 66.3381 11.198 66.3381 11.954ZM64.3081 11.394C64.2988 10.89 64.1168 10.4887 63.7621 10.19C63.4074 9.882 62.9734 9.728 62.4601 9.728C61.9748 9.728 61.5641 9.87733 61.2281 10.176C60.9014 10.4653 60.7008 10.8713 60.6261 11.394H64.3081Z" fill="black"/>
</svg>
